<svg xmlns="http://www.w3.org/2000/svg" width="156" height="84" viewBox="0 0 156 84">
    <path fill="none" fill-rule="evenodd" stroke="#EF005C" d="M143.993 12.507C135.846 4.36 126.015.286 114.5.286h-73c-11.514 0-21.347 4.074-29.493 12.221C3.859 20.654-.215 30.485-.215 42c0 11.516 4.075 21.346 12.222 29.493C20.153 79.64 29.985 83.715 41.5 83.715c10.429 0 19.607-3.477 27.538-10.43h17.924c7.931 6.953 17.108 10.43 27.538 10.43 11.514 0 21.346-4.074 29.493-12.222 8.147-8.148 12.222-17.977 12.222-29.493 0-11.515-4.074-21.346-12.222-29.493zM67.571 47.215c0 .76-.244 1.385-.733 1.873-.489.489-1.113.733-1.874.733H49.321v15.644c0 .76-.244 1.385-.733 1.873-.489.489-1.113.733-1.874.733H36.285c-.76 0-1.385-.244-1.874-.733-.488-.488-.732-1.113-.732-1.873V49.821H18.035c-.76 0-1.385-.244-1.874-.733-.488-.488-.732-1.113-.732-1.873V36.786c0-.76.244-1.385.732-1.874.489-.489 1.114-.733 1.874-.733h15.644V18.536c0-.76.244-1.385.732-1.874.489-.489 1.114-.733 1.874-.733h10.429c.761 0 1.385.244 1.874.733.489.489.733 1.114.733 1.874v15.643h15.643c.761 0 1.385.244 1.874.733.489.489.733 1.114.733 1.874v10.429zm43.874 12.587c-2.037 2.037-4.495 3.056-7.375 3.056-2.877 0-5.336-1.019-7.372-3.056-2.037-2.036-3.056-4.495-3.056-7.373 0-2.879 1.019-5.337 3.056-7.374C98.734 43.02 101.193 42 104.07 42c2.88 0 5.338 1.02 7.375 3.055 2.035 2.037 3.055 4.495 3.055 7.374 0 2.878-1.02 5.337-3.055 7.373zm20.856-20.857c-2.035 2.036-4.494 3.055-7.373 3.055-2.879 0-5.337-1.018-7.373-3.055-2.037-2.038-3.056-4.495-3.056-7.374 0-2.878 1.019-5.336 3.056-7.373 2.036-2.037 4.494-3.055 7.373-3.055 2.879 0 5.338 1.018 7.373 3.055 2.037 2.037 3.057 4.495 3.057 7.373-.001 2.879-1.019 5.337-3.057 7.374z"/>
</svg>
