<svg xmlns="http://www.w3.org/2000/svg" width="146" height="126" viewBox="0 0 146 126">
    <path fill="none" fill-rule="evenodd" stroke="#EF005C" d="M135.652 10.532C128.754 3.796 119.222.429 107.054.429c-3.367 0-6.803.584-10.306 1.751a41.697 41.697 0 0 0-9.776 4.726c-3.015 1.982-5.607 3.843-7.781 5.581A75.141 75.141 0 0 0 73 18.027a75.319 75.319 0 0 0-6.192-5.54c-2.173-1.738-4.766-3.598-7.781-5.581A41.721 41.721 0 0 0 49.25 2.18C45.747 1.013 42.311.429 38.944.429c-12.167 0-21.699 3.368-28.597 10.103C3.449 17.267 0 26.609 0 38.558c0 3.639.639 7.388 1.915 11.243 1.276 3.856 2.73 7.143 4.359 9.858a72.11 72.11 0 0 0 5.54 7.944c2.064 2.58 3.572 4.358 4.522 5.336.95.977 1.697 1.683 2.24 2.117l50.839 49.047c.978.979 2.173 1.468 3.585 1.468s2.607-.489 3.585-1.466l50.758-48.885C139.781 62.783 146 50.562 146 38.558c0-11.949-3.45-21.291-10.348-28.026z"/>
</svg>
