<svg xmlns="http://www.w3.org/2000/svg" width="114" height="126" viewBox="0 0 114 126">
    <g fill="none" fill-rule="evenodd" stroke="#FFF">
        <path d="M56.999 63c8.638 0 16.011-3.056 22.12-9.166 6.111-6.11 9.166-13.483 9.166-22.12 0-8.636-3.055-16.009-9.166-22.12-6.11-6.11-13.484-9.165-22.12-9.165-8.636 0-16.01 3.055-22.12 9.165-6.111 6.111-9.166 13.484-9.166 22.12 0 8.637 3.055 16.01 9.166 22.12C40.99 59.944 48.363 63 56.999 63z"/>
        <path d="M114.07 96.037c-.191-2.743-.571-5.703-1.141-8.881-.57-3.178-1.291-6.124-2.16-8.84a41.868 41.868 0 0 0-3.504-7.943c-1.466-2.58-3.15-4.78-5.052-6.6-1.902-1.82-4.223-3.272-6.965-4.358-2.744-1.086-5.772-1.63-9.085-1.63-.489 0-1.63.584-3.422 1.752a771.164 771.164 0 0 1-6.069 3.911c-2.254 1.438-5.188 2.743-8.799 3.909-3.612 1.168-7.237 1.752-10.877 1.752-3.639 0-7.264-.584-10.876-1.752-3.611-1.166-6.545-2.471-8.799-3.909a771.164 771.164 0 0 1-6.069-3.911c-1.793-1.168-2.933-1.752-3.422-1.752-3.313 0-6.341.544-9.084 1.63-2.743 1.086-5.065 2.539-6.966 4.358-1.901 1.82-3.585 4.02-5.051 6.6a41.955 41.955 0 0 0-3.503 7.943c-.869 2.716-1.589 5.662-2.159 8.84-.571 3.178-.951 6.137-1.141 8.881-.19 2.744-.285 5.554-.285 8.433 0 6.517 1.983 11.664 5.948 15.439 3.965 3.774 9.234 5.661 15.806 5.661h71.208c6.572 0 11.84-1.887 15.806-5.661 3.966-3.775 5.948-8.921 5.948-15.439 0-2.879-.095-5.69-.287-8.433z"/>
    </g>
</svg>
