<svg xmlns="http://www.w3.org/2000/svg" width="56" height="56" viewBox="0 0 56 56">
    <path fill="#EF005C" fill-rule="evenodd" d="M40.465 28l13.474-13.474c.855-.855 1.283-1.893 1.283-3.116 0-1.222-.428-2.26-1.283-3.116L47.706 2.06C46.85 1.205 45.812.778 44.59.778c-1.223 0-2.26.427-3.116 1.283L28 15.534 14.526 2.061C13.671 1.205 12.633.778 11.41.778c-1.222 0-2.26.427-3.116 1.283L2.06 8.294C1.206 9.149.778 10.188.778 11.41c0 1.223.427 2.26 1.283 3.116L15.534 28 2.061 41.474c-.855.855-1.283 1.894-1.283 3.116 0 1.222.427 2.26 1.283 3.116l6.233 6.233c.855.855 1.894 1.283 3.116 1.283 1.223 0 2.26-.428 3.116-1.283L28 40.465l13.474 13.474c.856.855 1.894 1.283 3.117 1.283 1.222 0 2.26-.428 3.116-1.283l6.232-6.233c.855-.855 1.283-1.894 1.283-3.116 0-1.223-.428-2.26-1.283-3.116L40.465 28z"/>
</svg>
